<svg xmlns="http://www.w3.org/2000/svg" viewBox="0 0 64 64" width="64" height="64" role="img" aria-label="kids mind">
  <defs>
    <linearGradient id="kmWarmA" x1="16" y1="6" x2="48" y2="58" gradientUnits="userSpaceOnUse">
      <stop offset="0" stop-color="#FF7A94"/>
      <stop offset="1" stop-color="#FFB877"/>
    </linearGradient>
    <mask id="kmSproutA">
      <rect width="64" height="64" fill="#FFFFFF"/>
      <g fill="#000000">
        <path d="M31.4 36.5C25.6 36 21 31.2 22 24.4C27.7 23.9 31.4 29.6 31.4 36.5Z"/>
        <path d="M32.6 32.6C38.4 32.1 42 27.3 41 20.5C35.3 20 32.6 25.7 32.6 32.6Z"/>
        <path d="M32 46V27" stroke="#000000" stroke-width="4.6" stroke-linecap="round"/>
      </g>
    </mask>
  </defs>
  <path mask="url(#kmSproutA)" fill="url(#kmWarmA)" d="M32 5C40.6 5 47 15.4 47 28C47 43 40.6 58 32 58C23.4 58 17 43 17 28C17 15.4 23.4 5 32 5Z"/>
</svg>
